# xmcd
#
# Track frame offsets:
#	150
#	20588
#	56622
#	78557
#	95456
#	113048
#	144486
#	161218
#	182413
#	205759
#	227002
#	246723
#	270642
#	292537
#	316532
#	333435
#	348764
#
# Disc length: 4796 seconds
#
# Revision: 1
# Processed by: cddbd v1.5.2PL0 Copyright (c) Steve Scherf et al.
# Submitted via: EZCDAudioConverter 6.0.0.1
#
DISCID=e712ba11
DTITLE=Various Artist - Akella Presents - vol.117 - Rockin' Blues  CD2
DYEAR=2017
DGENRE=Blues
TTITLE0=Alex Jenkins and The Bombers - Charlene
TTITLE1=The Five Dollar Sugar - Self Gratification
TTITLE2=The King Brothers - Girl What's Wrong
TTITLE3=The Juke Hounds - Don't Stop
TTITLE4=MonkeyJunk - Sirens in the Night
TTITLE5=Chris Cobb Band - A Ride
TTITLE6=Johnny One Eye - Gasoline
TTITLE7=American Blues Box - Some Kind Of Wonderful
TTITLE8=Grinderswitch - Holding On To Someone Letting Go
TTITLE9=Rebel State - God Knows
TTITLE10=Marcus Malone - Detroit City Blues
TTITLE11=Mojo Monkeys - Beating Dead Horses
TTITLE12=Vargas Blues Band and Paul Shortino - Spanish Roads
TTITLE13=Too Slim and The Taildraggers - One More Gallon Of Gasoline
TTITLE14=C.C. Adcock - Y'all'd Think She'd Be Good 2 Me
TTITLE15=Spike - Cocaine
TTITLE16=Ross Neilsen - Early Grave
EXTD=
EXTT0=
EXTT1=
EXTT2=
EXTT3=
EXTT4=
EXTT5=
EXTT6=
EXTT7=
EXTT8=
EXTT9=
EXTT10=
EXTT11=
EXTT12=
EXTT13=
EXTT14=
EXTT15=
EXTT16=
PLAYORDER=
